<?xml version="1.0" standalone="no"?>
<!DOCTYPE svg PUBLIC "-//W3C//DTD SVG 20010904//EN"
 "http://www.w3.org/TR/2001/REC-SVG-20010904/DTD/svg10.dtd">
<svg version="1.0" xmlns="http://www.w3.org/2000/svg"
 width="512.000000pt" height="512.000000pt" viewBox="0 0 512.000000 512.000000"
 preserveAspectRatio="xMidYMid meet">

<g transform="translate(0.000000,512.000000) scale(0.100000,-0.100000)"
fill="#FCB641" stroke="none">
<path d="M225 4786 c-95 -30 -168 -96 -201 -182 -18 -47 -19 -98 -19 -1589 l0
-1540 28 -79 c36 -103 68 -156 140 -232 75 -81 151 -130 257 -168 l85 -31
1102 -3 1102 -3 3 -362 c3 -356 3 -363 27 -414 29 -65 101 -134 166 -159 48
-18 87 -19 925 -19 838 0 877 1 925 19 65 25 137 94 166 159 l24 52 0 640 c0
606 -1 643 -19 689 -38 99 -140 178 -248 192 l-48 7 0 112 c0 133 -17 233 -58
337 -76 197 -252 374 -446 449 -361 139 -750 16 -964 -305 -90 -136 -122 -248
-129 -447 l-5 -147 -47 -6 c-104 -14 -199 -85 -243 -181 -18 -41 -23 -72 -26
-173 l-4 -122 -1082 2 c-1080 3 -1081 3 -1127 24 -67 31 -124 87 -156 152
l-28 57 -3 1378 -2 1377 1084 -929 c872 -747 1092 -931 1120 -937 52 -9 101 3
138 34 18 15 504 431 1080 925 576 493 1050 897 1053 897 3 0 6 -504 7 -1119
3 -1113 3 -1120 24 -1147 39 -53 71 -69 134 -69 63 0 95 16 134 69 21 27 21
30 21 1294 0 1225 -1 1269 -19 1317 -25 65 -94 137 -159 166 l-52 24 -2310 2
c-1843 1 -2318 -1 -2350 -11z m4320 -315 c-120 -108 -1978 -1691 -1985 -1691
-7 0 -1865 1583 -1984 1691 -6 5 874 9 1984 9 1110 0 1990 -4 1985 -9z m-592
-2086 c89 -23 156 -62 223 -129 105 -105 144 -210 144 -388 l0 -108 -480 0
-480 0 0 108 c0 179 39 283 144 387 127 125 289 172 449 130z m687 -1505 l0
-560 -800 0 -800 0 0 560 0 560 800 0 800 0 0 -560z"/>
<path d="M3775 1106 c-41 -18 -83 -69 -91 -110 -3 -19 -4 -84 -2 -144 3 -120
12 -142 72 -186 39 -29 133 -29 172 0 64 47 69 63 69 214 0 151 -5 167 -67
213 -33 25 -113 32 -153 13z"/>
</g>
</svg>
